#!OML:ASF F:\VICON\USERDATA\INSTALL\rory3\rory3.ASF
:FULLY-SPECIFIED
:DEGREES
219
root 12.3471 17.4853 4.5028 -181.158 -45.3899 179.444
lowerback 13.8482 1.5986 0.159727
upperback 0.750983 2.09906 0.508157
thorax -6.9894 0.989478 0.0407372
lowerneck -20.2269 -2.77759 -12.1871
upperneck 33.4639 -3.79926 7.92327
head 15.5775 -2.51272 4.67159
rclavicle 2.22887e-014 -2.98177e-015
rhumerus -33.2825 -18.1819 -71.6992
rradius 29.4682
rwrist 7.9895
rhand -16.9841 7.87834
rfingers 7.12502
rthumb 9.25073 -21.8987
lclavicle 2.22887e-014 -2.98177e-015
lhumerus -34.4446 8.99633 80.1523
lradius 33.0382
lwrist -5.88397
lhand -19.3189 22.4222
lfingers 7.12502
lthumb 6.9973 52.2866
rfemur -2.71089 7.12226 9.57187
rtibia 27.8282
rfoot -22.1928 5.67199
rtoes -3.61007
lfemur -2.28119 -13.5334 1.1268
ltibia 7.9518
lfoot 1.9916 -11.933
ltoes -16.8345
220
root 12.2473 17.4645 4.58075 -181.049 -45.0859 179.322
lowerback 13.7998 1.55419 0.0618382
upperback 0.710346 2.02649 0.498558
thorax -7.00871 0.958029 0.10059
lowerneck -20.193 -2.76928 -11.8739
upperneck 33.4531 -3.78833 7.57736
head 15.5464 -2.51695 4.46422
rclavicle -4.59938e-014 2.42517e-014
rhumerus -33.4632 -18.3282 -71.4904
rradius 29.6609
rwrist 7.79191
rhand -17.1391 7.85978
rfingers 7.12502
rthumb 9.10107 -21.9239
lclavicle -4.59938e-014 2.42517e-014
lhumerus -34.5493 8.75643 80.229
lradius 33.1683
lwrist -5.57851
lhand -18.8558 20.7146
lfingers 7.12502
lthumb 7.44433 50.5636
rfemur -2.74582 7.35835 9.00627
rtibia 27.8095
rfoot -22.2559 5.64757
rtoes -4.47857
lfemur -2.02653 -12.953 0.812744
ltibia 7.81573
lfoot 1.26284 -12.8685
ltoes -16.9861
221
root 12.1415 17.4448 4.66045 -181.094 -44.7619 179.321
lowerback 13.7506 1.52283 0.0577468
upperback 0.717763 1.98723 0.546973
thorax -6.97499 0.939845 0.163226
lowerneck -19.8647 -2.73344 -11.1661
upperneck 33.1014 -3.69852 6.74409
head 15.2539 -2.48962 3.97863
rclavicle 1.53064e-014 -4.37326e-015
rhumerus -33.5646 -18.5297 -71.1912
rradius 29.6785
rwrist 7.72284
rhand -17.1934 8.05824
rfingers 7.12502
rthumb 9.04873 -21.7277
lclavicle 1.53064e-014 -4.37326e-015
lhumerus -34.5956 8.65141 80.4434
lradius 33.2833
lwrist -5.59705
lhand -18.7529 20.4182
lfingers 7.12502
lthumb 7.54369 50.2637
rfemur -2.63311 7.67972 8.53738
rtibia 27.6577
rfoot -22.2465 5.55685
rtoes -5.56498
lfemur -1.9173 -12.3834 0.494533
ltibia 8.1308
lfoot 0.0230236 -13.8796
ltoes -18.6091
222
root 12.0331 17.425 4.74083 -181.073 -44.5158 179.238
lowerback 13.6991 1.462 0.0170723
upperback 0.688281 1.90371 0.573399
thorax -6.97956 0.901601 0.231221
lowerneck -19.9035 -2.69668 -11.5902
upperneck 33.3215 -3.67722 7.16285
head 15.3838 -2.49509 4.24538
rclavicle -4.39563e-014 -5.96354e-015
rhumerus -33.6235 -18.6382 -70.8567
rradius 29.5738
rwrist 7.667
rhand -17.0252 7.99382
rfingers 7.12502
rthumb 9.21103 -21.785
lclavicle -4.39563e-014 -5.96354e-015
lhumerus -34.6766 8.57515 80.6504
lradius 33.3322
lwrist -5.76184
lhand -19.2101 22.102
lfingers 7.12502
lthumb 7.10238 51.9628
rfemur -2.45288 7.87258 7.98888
rtibia 27.3964
rfoot -22.2754 5.40276
rtoes -7.23226
lfemur -2.03236 -11.8853 0.0386492
ltibia 8.77927
lfoot -1.58005 -14.7174
ltoes -20.0486
223
root 11.9258 17.4017 4.82083 -181.209 -44.2386 179.239
lowerback 13.7866 1.42567 0.0492918
upperback 0.664946 1.86113 0.577317
thorax -7.05225 0.879557 0.2231
lowerneck -19.6799 -2.7218 -11.4008
upperneck 33.2471 -3.7563 6.97417
head 15.2977 -2.53517 4.11022
rclavicle -1.49089e-014 -1.03368e-014
rhumerus -33.7768 -18.8462 -70.5532
rradius 29.4812
rwrist 7.64381
rhand -17.3762 8.14157
rfingers 7.12502
rthumb 8.8723 -21.6519
lclavicle -1.49089e-014 -1.03368e-014
lhumerus -34.652 8.7839 80.6283
lradius 33.1904
lwrist -6.13919
lhand -19.2106 22.5339
lfingers 7.12502
lthumb 7.10185 52.3948
rfemur -2.16442 8.06857 7.5306
rtibia 27.0469
rfoot -22.1851 5.29524
rtoes -8.01292
lfemur -2.17111 -11.3907 -0.400457
ltibia 9.73878
lfoot -3.08526 -15.2143
ltoes -20.0064
224
root 11.8171 17.3834 4.90204 -181.341 -43.9727 179.255
lowerback 13.9284 1.40532 0.112402
upperback 0.622693 1.84749 0.611711
thorax -7.17591 0.870931 0.222705
lowerneck -19.4887 -2.79244 -11.3669
upperneck 33.1968 -3.87511 6.87284
head 15.2423 -2.60055 4.03455
rclavicle -2.77305e-014 -1.98785e-014
rhumerus -34.0676 -19.1059 -70.1497
rradius 29.5183
rwrist 7.62018
rhand -18.5211 8.79397
rfingers 7.12502
rthumb 7.76736 -21.0434
lclavicle -2.77305e-014 -1.98785e-014
lhumerus -34.5969 9.10908 80.621
lradius 33.0116
lwrist -6.58338
lhand -18.7021 22.1816
lfingers 7.12502
lthumb 7.59274 52.0254
rfemur -1.85617 8.34942 7.07623
rtibia 26.63
rfoot -21.9635 5.27215
rtoes -8.12112
lfemur -2.36414 -10.9016 -0.880602
ltibia 10.8369
lfoot -4.53712 -15.4271
ltoes -19.3807
225
root 11.7117 17.3724 4.98726 -181.265 -43.8051 179.078
lowerback 14.0363 1.38367 -0.0560576
upperback 0.582318 1.79776 0.672413
thorax -7.28672 0.85331 0.38916
lowerneck -19.4549 -2.87849 -11.5575
upperneck 33.2554 -3.96197 6.88392
head 15.28 -2.66742 4.05733
rclavicle 1.07592e-014 -1.55052e-014
rhumerus -34.3597 -19.337 -69.693
rradius 29.6984
rwrist 7.61143
rhand -19.4303 8.92325
rfingers 7.12502
rthumb 6.88982 -20.9446
lclavicle 1.07592e-014 -1.55052e-014
lhumerus -34.6298 9.06205 80.8797
lradius 33.0513
lwrist -6.51026
lhand -18.7537 22.7701
lfingers 7.12502
lthumb 7.54292 52.6156
rfemur -1.55586 8.65543 6.48037
rtibia 26.1234
rfoot -21.5572 5.21667
rtoes -7.76827
lfemur -2.7451 -10.1857 -1.55589
ltibia 12.0593
lfoot -6.09592 -15.4819
ltoes -19.474
226
root 11.6085 17.3676 5.06976 -181.102 -43.7043 178.865
lowerback 13.9944 1.36913 -0.296846
upperback 0.550857 1.74303 0.682956
thorax -7.30422 0.836024 0.547799
lowerneck -19.3466 -2.91853 -11.5325
upperneck 33.3182 -4.04834 6.82041
head 15.2937 -2.71956 4.00971
rclavicle 6.0853e-014 -1.78906e-014
rhumerus -34.7269 -19.7593 -69.3006
rradius 30.0092
rwrist 7.69991
rhand -18.819 8.26359
rfingers 7.12502
rthumb 7.47987 -21.5842
lclavicle 6.0853e-014 -1.78906e-014
lhumerus -34.5713 8.98827 81.0698
lradius 32.9664
lwrist -6.26831
lhand -19.2726 23.2816
lfingers 7.12502
lthumb 7.04199 53.1445
rfemur -1.23013 9.01498 5.91132
rtibia 25.5034
rfoot -21.1903 4.85356
rtoes -8.3914
lfemur -3.30406 -9.33632 -2.28463
ltibia 13.4367
lfoot -7.52687 -15.3643
ltoes -19.3606
227
root 11.4978 17.3597 5.15483 -180.937 -43.5264 178.596
lowerback 14.0052 1.35996 -0.444721
upperback 0.496404 1.70583 0.625077
thorax -7.37069 0.823238 0.576424
lowerneck -19.2144 -2.89848 -11.4245
upperneck 33.4342 -4.1116 6.81338
head 15.3217 -2.74891 3.97758
rclavicle -1.75179e-014 1.03368e-014
rhumerus -35.0913 -19.9879 -69.0448
rradius 30.2405
rwrist 7.38243
rhand -16.5426 7.17151
rfingers 7.12502
rthumb 9.67669 -22.5862
lclavicle -1.75179e-014 1.03368e-014
lhumerus -34.4399 8.98358 81.2116
lradius 32.7161
lwrist -5.97621
lhand -19.9049 24.5613
lfingers 7.12502
lthumb 6.43158 54.4437
rfemur -0.819428 9.20001 5.25442
rtibia 24.8059
rfoot -21.0888 4.37983
rtoes -11.0135
lfemur -3.79303 -8.56483 -3.14654
ltibia 14.8566
lfoot -8.90771 -15.0786
ltoes -19.1858
